<svg xmlns="http://www.w3.org/2000/svg" viewBox="0 0 327.73 136.15"><defs><style>.cls-1,.cls-2,.cls-3{fill:#d91f26;}.cls-1{stroke:#d91f26;stroke-miterlimit:10;stroke-width:2px;}.cls-3{font-size:37px;font-family:Verdana-Bold, Verdana;font-weight:700;}</style></defs><g id="Layer_2" data-name="Layer 2"><g id="Layer_1-2" data-name="Layer 1"><polygon class="cls-1" points="95.07 4.83 20.08 59.39 42.75 65.5 4.79 116.17 79.77 61.61 56.54 55.35 95.07 4.83"/><polyline class="cls-2" points="291.03 53.81 279.65 53.81 279.65 81.06 266.31 81.06 266.31 89.71 305.69 89.71 305.69 81.06 291.03 81.06 291.03 58.58"/><polygon class="cls-2" points="326.44 31.78 327.73 31.82 312.15 42.8 327.73 53.78 326.44 53.81 291.02 53.81 291.02 31.78 326.44 31.78"/><path class="cls-2" d="M116.38,89.78V60.37q0-7.42-5.51-7.42a7.87,7.87,0,0,0-5.27,2.22,38.57,38.57,0,0,0-5.31,6V89.78H89.45V27h10.84V42.46l-.53,8.18a32,32,0,0,1,2.8-3,15.49,15.49,0,0,1,3.06-2.2,14.9,14.9,0,0,1,3.56-1.35,17.81,17.81,0,0,1,4.22-.47,15,15,0,0,1,6,1.13,11.73,11.73,0,0,1,4.31,3.2,13.74,13.74,0,0,1,2.6,5,22.69,22.69,0,0,1,.87,6.51v30.3Z"/><path class="cls-2" d="M162.24,89.78,162,83.87a29.85,29.85,0,0,1-3,2.78,18.18,18.18,0,0,1-7.48,3.64,21.43,21.43,0,0,1-4.83.51,16.66,16.66,0,0,1-6.08-1,12.25,12.25,0,0,1-4.4-2.84,11.87,11.87,0,0,1-2.69-4.4,16.89,16.89,0,0,1-.91-5.69A13.09,13.09,0,0,1,134,70.94a12.61,12.61,0,0,1,4.14-4.66A21.52,21.52,0,0,1,145,63.21a38,38,0,0,1,9.75-1.11h5.91V59.39a9.35,9.35,0,0,0-.49-3.13,5.51,5.51,0,0,0-1.58-2.38,7.42,7.42,0,0,0-2.82-1.51,14.46,14.46,0,0,0-4.26-.53,34.3,34.3,0,0,0-7.89.91,41.73,41.73,0,0,0-7.53,2.55V46.64a42.8,42.8,0,0,1,7.49-2.13,44.43,44.43,0,0,1,8.82-.85,33.83,33.83,0,0,1,8.62,1A15.48,15.48,0,0,1,167,47.48a11.47,11.47,0,0,1,3.44,4.78A18.46,18.46,0,0,1,171.52,59V89.78Zm-1.56-20h-6.62a17.42,17.42,0,0,0-4.67.54,8.9,8.9,0,0,0-3.11,1.46A5.68,5.68,0,0,0,144.53,74a6.2,6.2,0,0,0-.56,2.6,5.1,5.1,0,0,0,1.78,4.19,7.43,7.43,0,0,0,4.84,1.45,8.5,8.5,0,0,0,4.71-1.64,34.14,34.14,0,0,0,5.38-4.71Z"/><path class="cls-2" d="M207.36,89.78,190.7,67.21V89.78H179.86V27H190.7V63.74l15.77-19.1H220L201.72,65.21l19.82,24.57Z"/><path class="cls-2" d="M262.13,89.34q-2.92.66-5.91,1.07a43.39,43.39,0,0,1-5.64.39,27.9,27.9,0,0,1-7.67-.93A13.41,13.41,0,0,1,237.58,87a11.46,11.46,0,0,1-3.11-4.87,22.2,22.2,0,0,1-1-7v-22H221.34V44.64h12.13V33.09l11.11-2.89V44.64h17.55v8.44H244.58V74.32q0,3.87,1.78,5.84c1.18,1.32,3.17,2,5.95,2a30.66,30.66,0,0,0,5.2-.44c1.69-.3,3.23-.64,4.62-1Z"/><text class="cls-3" transform="translate(219.57 124.93)">CON</text></g></g></svg>